<svg id="Layer_1" data-name="Layer 1" xmlns="http://www.w3.org/2000/svg" viewBox="0 0 100 50"><defs><style>.cls-1{fill:#fff;}</style></defs><path class="cls-1" d="M64.32,32.67a.73.73,0,0,0-.31-.14,1.47,1.47,0,0,0-.36,0h-.09l-2.69-.13Q56.47,32.14,52,32c-3-.09-5.9-.05-8.76.1a.86.86,0,0,1-.6-.09c-.13-.09-.12-.3,0-.61a2.84,2.84,0,0,1,.14-.32,2.24,2.24,0,0,0,.13-.27q3.6-7.56,7.34-15l1.14-2.27c1.07-2.13,2.14-4.25,3.2-6.38q.32-.66.57-1.32a.78.78,0,0,0,0-.14c.07-.18,0-.31-.07-.38a.72.72,0,0,0-.4-.11.92.92,0,0,0-.41.1,1.23,1.23,0,0,0-.35.49l-.08.16q-3.22,6.23-6.35,12.48t-6,12.64c-.11.24-.22.48-.34.72a.54.54,0,0,1-.54.33c-1.48,0-3,.12-4.48.24l-1,.06-.23,0c-.5,0-.94.06-1.31.06a1.33,1.33,0,0,1-.79-.18c-.16-.11-.17-.32,0-.63s.16-.38.25-.57q4.39-9.37,8.42-18.93c.31-.73.61-1.47.88-2.22a17.87,17.87,0,0,0,.67-2.3.83.83,0,0,1,0-.15c.08-.32.14-.65.19-1a4.26,4.26,0,0,0,0-1A1.48,1.48,0,0,0,41.74,4,7.2,7.2,0,0,0,39,4.53a18.75,18.75,0,0,0-2.84,1.33c-.93.53-1.73,1-2.43,1.46A78.74,78.74,0,0,0,17.82,20.7c-.73.82-1.44,1.66-2.11,2.54a11.82,11.82,0,0,0-1.57,2.63,4.46,4.46,0,0,0-.41,1.65v.07a2.7,2.7,0,0,0,.78,2.07,3.65,3.65,0,0,0,2,.9,10,10,0,0,0,2.58.06,19.19,19.19,0,0,0,2.66-.47,19.3,19.3,0,0,0,2.21-.67,5.13,5.13,0,0,0,1.19-.54c.19-.13.07-.15-.34-.08l-1.46.34a14.25,14.25,0,0,1-1.71.36,20.4,20.4,0,0,1-2.34.26A8.23,8.23,0,0,1,17,29.65a2.57,2.57,0,0,1-1.59-.93,2.28,2.28,0,0,1-.19-2,7.86,7.86,0,0,1,.74-1.65,19.18,19.18,0,0,1,1.35-2c.49-.63,1-1.24,1.54-1.82A77.1,77.1,0,0,1,35.28,7.5l.14-.08,1-.64c.47-.29,1-.59,1.58-.89a17.3,17.3,0,0,1,1.68-.76,3.52,3.52,0,0,1,1.39-.3.65.65,0,0,1,.68.55,4.76,4.76,0,0,1-.11,1.8A25.42,25.42,0,0,1,40,12q-2.31,5.39-4.68,10.73c-.08.2-.17.4-.26.59a14.11,14.11,0,0,1-.61,1.38A6.66,6.66,0,0,1,33.67,26a1.17,1.17,0,0,0-.17.29l-.06.1c-.18.32-.35.65-.51,1-.49.87-1,1.75-1.44,2.63s-.77,1.49-1.13,2.23a.93.93,0,0,1-.88.57c-1.25.13-2.49.29-3.73.47a16,16,0,0,0-3.2.77.28.28,0,0,0-.12.12.49.49,0,0,0-.06.13.17.17,0,0,0,.08.16.25.25,0,0,0,.16.06l.15,0,.08,0,.06,0a3.86,3.86,0,0,0,.84-.1c.27-.08.85-.2,1.74-.35s1.74-.28,2.58-.36h.06a5.35,5.35,0,0,1,1.1,0c.25,0,.32.18.21.44-.39.83-.78,1.66-1.18,2.48-1.11,2.33-2.13,4.69-3.07,7.1a5.19,5.19,0,0,0-.28.87.33.33,0,0,0,.25.34,1.23,1.23,0,0,0,.64,0,.91.91,0,0,0,.58-.36,6.85,6.85,0,0,0,.39-.71l.63-1.18,1.67-3.25q1.39-2.74,2.69-5.54a1.07,1.07,0,0,1,1-.7L35.4,33c1.64-.11,3.3-.18,5-.22.23,0,.29.17.19.44s-.21.46-.32.7l-.13.33c-.31.68-.61,1.36-.9,2q-1.92,4.3-3.79,8.6a10.2,10.2,0,0,0-.4,1,.34.34,0,0,0,.11.41.7.7,0,0,0,.44.1.72.72,0,0,0,.42-.16.76.76,0,0,0,.13-.29.34.34,0,0,0,.06-.12c.16-.38.32-.76.49-1.14.33-.77.66-1.53,1-2.29.47-1,.94-2.07,1.42-3.1q1.3-2.85,2.57-5.71a1.34,1.34,0,0,1,.52-.66,1.42,1.42,0,0,1,.79-.19h1.59q4.89,0,9.69,0t9.76.34l0,0,.18,0a.18.18,0,0,0,.14-.06.21.21,0,0,0,.06-.16.15.15,0,0,0,0-.11S64.35,32.68,64.32,32.67Z"/><path class="cls-1" d="M49.29,25.75l.29-.07.19-.09a2.68,2.68,0,0,0,.7-1.21.28.28,0,0,0-.07-.31.42.42,0,0,0-.31-.1.58.58,0,0,0-.35.17,5.49,5.49,0,0,0-.41.62,4.47,4.47,0,0,0-.29.65c-.06.15-.06.24,0,.29A.34.34,0,0,0,49.29,25.75Z"/><path class="cls-1" d="M54.46,26.08a5.47,5.47,0,0,0-1.05.28.57.57,0,0,1-.32.06,1,1,0,0,1-.17-.36.35.35,0,0,0-.31-.27.43.43,0,0,0-.41.16,2.12,2.12,0,0,0-.28.43,0,0,0,0,1,0,0l-1,1.78a4.88,4.88,0,0,1-1.81,1.11c-.63.21-.95.19-.95,0a4,4,0,0,1,.44-1.2l.21-.42c.11-.21.21-.43.3-.64a.27.27,0,0,0-.12-.28.37.37,0,0,0-.34-.07.82.82,0,0,0-.41.28,8.36,8.36,0,0,0-1,1.93c-.19.66-.13,1.08.18,1.27a1.72,1.72,0,0,0,1.27.12,3.84,3.84,0,0,0,1.45-.62c-.05.09-.09.17-.13.26a.21.21,0,0,0,0,.23.31.31,0,0,0,.23.12.69.69,0,0,0,.32,0,.46.46,0,0,0,.27-.2c.12-.15.24-.31.36-.49a.76.76,0,0,1,.1-.13,10.44,10.44,0,0,1,1.39-1.73A4,4,0,0,1,54,26.83c.52-.23.73-.11.61.34s0,.61.33.49a.91.91,0,0,0,.58-.8c.05-.41,0-.66-.25-.74A1.71,1.71,0,0,0,54.46,26.08Z"/><path class="cls-1" d="M56.05,30.17a3.75,3.75,0,0,0,1.44.21,4.19,4.19,0,0,0,.95-.13,5.1,5.1,0,0,0,1.16-.47,5.27,5.27,0,0,0,1.2-.87,2.33,2.33,0,0,0,.64-.95c0-.18,0-.29-.08-.33s-.44.23-1,.81a4.84,4.84,0,0,1-1.9,1.17,2.52,2.52,0,0,1-1.67,0c-.43-.14-.59-.47-.47-1a.32.32,0,0,1,.1-.19.24.24,0,0,1,.21-.07,4,4,0,0,0,1.26.07,2,2,0,0,0,1.55-1,.81.81,0,0,0,.14-.71.75.75,0,0,0-.5-.46,1.57,1.57,0,0,0-.49,0h0a3.57,3.57,0,0,0-2,.58A2.83,2.83,0,0,0,55.3,28.5,1.24,1.24,0,0,0,56.05,30.17Zm1-2.7a2.36,2.36,0,0,1,1.18-.59.41.41,0,0,1,.19,0,.19.19,0,0,1,.13.14.63.63,0,0,1-.22.56,1.14,1.14,0,0,1-.62.28,1.07,1.07,0,0,1-.68-.13.14.14,0,0,1-.06-.14A.39.39,0,0,1,57,27.47Z"/><path class="cls-1" d="M82.73,27.63c-.09,0-.44.23-1,.81a4.84,4.84,0,0,1-1.9,1.17,2.52,2.52,0,0,1-1.67,0c-.43-.14-.59-.47-.47-1a.32.32,0,0,1,.1-.19.24.24,0,0,1,.21-.07,4,4,0,0,0,1.26.07,2,2,0,0,0,1.55-1,.81.81,0,0,0,.14-.71.75.75,0,0,0-.5-.46,1.57,1.57,0,0,0-.49,0h0a3.57,3.57,0,0,0-2,.58,2.82,2.82,0,0,0-1,1.06l-1,.67c-.58.42-1,.58-1.13.46s-.15-.41.07-.91a6.91,6.91,0,0,0,.43-1.29c.08-.35-.09-.52-.5-.49a2,2,0,0,0-.84.31,9.69,9.69,0,0,0-.9.53l-.64.39a2.84,2.84,0,0,1-.41.23c-.07,0-.12,0-.13,0s0-.18.1-.38a.9.9,0,0,0,.09-.32.31.31,0,0,0-.14-.3.52.52,0,0,0-.46-.11,2.54,2.54,0,0,0-.47.14,5.85,5.85,0,0,0-.93.48l-.61.39L69,28c-.26.15-.41.19-.44.13s0-.21.08-.45l.16-.39c.1-.29.21-.58.31-.88s0-.33-.26-.39a.45.45,0,0,0-.5.15,2.69,2.69,0,0,0-.16.29s0,.08,0,.1c-.46,1-.92,1.91-1.39,2.86a.38.38,0,0,1-.06.13,1.3,1.3,0,0,0-.14.29.31.31,0,0,0,0,.34.43.43,0,0,0,.35.11,1,1,0,0,0,.61-.25,1.92,1.92,0,0,0,.22-.18l.76-.61c.57-.42,1-.75,1.34-1a5.78,5.78,0,0,1,.57-.39s.09,0,.13.05a.16.16,0,0,1,0,.16,3.17,3.17,0,0,1-.25.44l-.42.64a1.92,1.92,0,0,0-.22.44.31.31,0,0,0,.1.29.42.42,0,0,0,.28.12.83.83,0,0,0,.32,0,1.13,1.13,0,0,0,.58-.31v0l.41-.35c.22-.19.43-.36.65-.53.52-.4,1-.79,1.57-1.16q.28-.2.36-.18c.05,0,.06.06.05.15s-.14.49-.36,1.2-.06,1.1.45,1.15a3,3,0,0,0,1.79-.53c.26-.15.48-.3.68-.44a1.16,1.16,0,0,0,.82,1.17,3.75,3.75,0,0,0,1.44.21,4.36,4.36,0,0,0,1-.13A5.24,5.24,0,0,0,81,29.78a5.06,5.06,0,0,0,1.2-.87,2.33,2.33,0,0,0,.64-.95C82.85,27.78,82.82,27.67,82.73,27.63Zm-4.36-.16a2.4,2.4,0,0,1,1.18-.59.41.41,0,0,1,.19,0,.19.19,0,0,1,.13.14.63.63,0,0,1-.22.56,1.14,1.14,0,0,1-.62.28,1.07,1.07,0,0,1-.68-.13.14.14,0,0,1-.06-.14A.39.39,0,0,1,78.37,27.47Z"/></svg>