<svg id="Layer_1" data-name="Layer 1" xmlns="http://www.w3.org/2000/svg" viewBox="0 0 100 50"><defs><style>.cls-1{fill:#fff;}</style></defs><path class="cls-1" d="M59.67,11.41l-.13.33c-.43,1.12-.89,2.22-1.39,3.3q-3.85,8-8.28,15.51c-1,1.61-1.94,3.2-2.95,4.75s-2,3.11-3,4.65c-.24.37-.48.73-.73,1.09a.43.43,0,0,1,0,.07.93.93,0,0,1-.19.27.39.39,0,0,1-.3.11.38.38,0,0,1-.17,0,.56.56,0,0,1-.15-.1.38.38,0,0,1-.06-.18.32.32,0,0,1,0-.2,8.32,8.32,0,0,1,.56-1l1.37-2.23q1.3-2.07,2.56-4.16,2.79-4.65,5.32-9.49t5-9.79a23.79,23.79,0,0,0,1.59-4.09,5,5,0,0,0,.2-.78,5.71,5.71,0,0,0,.07-.84c0-.62-.31-.89-.79-.81a4.85,4.85,0,0,0-1.22.4c-.91.44-1.8.92-2.68,1.45a58.73,58.73,0,0,0-12.9,10.67l-.19.21q-2,2.18-4,4.41t-3.84,4.57a12.09,12.09,0,0,1-.81.92,1.19,1.19,0,0,1-1.08.37.67.67,0,0,1-.44-.27.7.7,0,0,1-.13-.53,10.34,10.34,0,0,1,.36-1.6c.5-1.64,1-3.25,1.59-4.85.08-.24.16-.48.22-.71a7.42,7.42,0,0,1,.63-1.65l0,0-.2-.08a.18.18,0,0,0-.2.06c-.25.28-.49.56-.71.85q-2.8,3.81-5.56,7.67t-5.37,7.86a2.3,2.3,0,0,1-.49.63.81.81,0,0,1-.73.16A.5.5,0,0,1,20,38a.41.41,0,0,1,0-.37,8.41,8.41,0,0,1,.52-1l1.61-2.8q1.59-2.78,3.16-5.58a77.86,77.86,0,0,0,4.35-9,26,26,0,0,0,1.21-3.84,7.83,7.83,0,0,0,.22-2.23,3.34,3.34,0,0,0-1.23-2.67,4.69,4.69,0,0,0-2.94-.76,14.59,14.59,0,0,0-4,.74,32.47,32.47,0,0,0-4.54,1.86,43.77,43.77,0,0,0-4.48,2.54A36.8,36.8,0,0,0,10,17.65a17.63,17.63,0,0,0-2.63,2.69,16.48,16.48,0,0,0-1.68,3,5.15,5.15,0,0,0-.4,1.73.34.34,0,0,1-.19.28.5.5,0,0,1-.36.05.6.6,0,0,1-.41-.51,2.37,2.37,0,0,1,.08-1,12.23,12.23,0,0,1,.81-2.12,14.75,14.75,0,0,1,2.84-3.56,31.2,31.2,0,0,1,4.42-3.48,44.09,44.09,0,0,1,5.28-3,32.78,32.78,0,0,1,5.38-2,16,16,0,0,1,4.74-.65,5.06,5.06,0,0,1,3.32,1.16,4.23,4.23,0,0,1,1.18,3.41,11.48,11.48,0,0,1-.47,2.86,36.63,36.63,0,0,1-1.36,3.86c-.51,1.24-1.06,2.45-1.63,3.64q-.27.54-.12.54c.1,0,.25-.15.46-.42q1.1-1.47,2.19-2.88c.5-.64,1-1.26,1.52-1.87l.21-.25a2.09,2.09,0,0,1,1.07-.72.81.81,0,0,1,.79.21,1,1,0,0,1,.22.94l0,.13c-.12.54-.24,1.07-.39,1.58-.4,1.24-.8,2.48-1.22,3.71-.2.64-.41,1.28-.61,1.93q-.06.14-.18.51c-.08.21-.16.43-.23.64s-.14.36-.18.48c.06-.05.56-.61,1.5-1.69q1.93-2.22,4.57-5.19t4.14-4.54a51.75,51.75,0,0,1,5.86-5.08A58.51,58.51,0,0,1,54.88,8a18.15,18.15,0,0,1,1.67-.77l.36-.14a3.56,3.56,0,0,1,1.72-.24c1.17.11,1.7.84,1.61,2.21A7.82,7.82,0,0,1,59.67,11.41Zm-26.1,9.67.06.05v0s0,0,0,0Z"/><path class="cls-1" d="M61.2,28.86c.08.16-.06.4-.4.72A9.7,9.7,0,0,1,59,30.76c-.32.13-.56.24-.71.32a.78.78,0,0,0-.32.3,3.61,3.61,0,0,0-.22.57l-.27.77c-.15.39-.3.8-.44,1.22a24.36,24.36,0,0,1-1,2.53,7.66,7.66,0,0,1-1.44,2.18,4.32,4.32,0,0,1-2.28,1.24,8.27,8.27,0,0,1-2.71.08,9.51,9.51,0,0,1-2.57-.73,3.09,3.09,0,0,1-.91-.61,1.12,1.12,0,0,1-.1-1.55,4.24,4.24,0,0,1,.71-.76,15.34,15.34,0,0,1,1.7-1.2c1.1-.67,2.22-1.27,3.37-1.83s2.32-1.09,3.49-1.6l.27-.12,1-.45a.73.73,0,0,0,.48-.47.42.42,0,0,0,0-.22s0-.07-.07-.07a.13.13,0,0,0-.11,0,2.41,2.41,0,0,0-.36.23,1.13,1.13,0,0,0-.22.14,2.35,2.35,0,0,1-1.32.32c-.72,0-1.09-.32-1.1-1a3.77,3.77,0,0,1,.27-1.5A5,5,0,0,1,55,27.27a.38.38,0,0,1,.16-.11.66.66,0,0,1,.2-.06,0,0,0,0,0,0,0,.38.38,0,0,1,.32.1.28.28,0,0,1,0,.31l-.24.53-.2.4a3.34,3.34,0,0,0-.37,1.66.35.35,0,0,0,.16.27.38.38,0,0,0,.33,0,2.92,2.92,0,0,0,1-.63,8.61,8.61,0,0,0,1.81-2.3,1.47,1.47,0,0,1,.23-.31.59.59,0,0,1,.36-.15.52.52,0,0,1,.44.13.4.4,0,0,1,.09.4c-.18.55-.36,1.1-.55,1.64,0,0,0,.08,0,.12a3.54,3.54,0,0,0-.14.39,1,1,0,0,0-.07.35c0,.11,0,.16.13.16a4.42,4.42,0,0,0,1.48-.82C60.75,28.86,61.12,28.7,61.2,28.86Zm-4.84,3.7a.11.11,0,0,1,0-.08.43.43,0,0,0,.06-.22.4.4,0,0,0-.06-.25h-.1l-.23.06-.41.19c-1.08.5-2.16,1-3.25,1.54s-2.14,1.09-3.18,1.69a11,11,0,0,0-1.79,1.27c-.45.41-.67.76-.65,1.07s.28.58.8.82a6.85,6.85,0,0,0,3.79.75,3.49,3.49,0,0,0,2.25-1A7.67,7.67,0,0,0,55,36.19c.36-.84.68-1.67.95-2.51C56.1,33.29,56.23,32.91,56.36,32.56Z"/><path class="cls-1" d="M72.43,28.62a8,8,0,0,1-1.56,1.66l-1.4,1.1a4.23,4.23,0,0,0-.71.69,3.57,3.57,0,0,1-.88.9,1.12,1.12,0,0,1-.56.29,1.27,1.27,0,0,1-.55,0,.19.19,0,0,1-.14-.15.46.46,0,0,1,.06-.26,3.13,3.13,0,0,1,.35-.4c.17-.16.36-.32.54-.47a.17.17,0,0,0,.06-.06q1-.83.78-1.68a1.75,1.75,0,0,0-.19-.39.34.34,0,0,0-.06-.12,1.3,1.3,0,0,0-.1-.25,3.07,3.07,0,0,1-.24-.48c-.17-.55.07-1.06.71-1.55a5.07,5.07,0,0,1,1.78-.93,1.28,1.28,0,0,1,1,.1c.24.16.28.43.12.8a.83.83,0,0,1-.53.42c-.29.05-.45,0-.47-.24v-.23a.27.27,0,0,0,0-.15s-.06,0-.12,0l-.33.13a2.87,2.87,0,0,0-.69.46.87.87,0,0,0-.41.89c0,.11.07.21.1.29s.11.21.15.3.2.36.28.53a1.86,1.86,0,0,1,.16.57,2.37,2.37,0,0,0,.78-.45,11.13,11.13,0,0,0,1.78-1.78,6.18,6.18,0,0,0,.81-1.43c.25-.57.58-1.31,1-2.23l.38-.87.12-.31c.08-.19,0-.28-.13-.28l-.58,0H73a.5.5,0,0,1-.38-.06.31.31,0,0,1-.09-.11.25.25,0,0,1,0-.17.61.61,0,0,1,.16-.16.35.35,0,0,1,.19-.06q.36,0,.75,0h.45l.58,0a.35.35,0,0,0,.29-.18c.08-.15.15-.3.22-.45l.67-1.4.47-.95,0-.05.09-.17a.77.77,0,0,1,.71-.39c.24,0,.32.16.24.43s-.13.33-.21.52l-.1.21-.27.59c-.21.44-.42.89-.62,1.33-.13.25-.17.4-.12.46s.19.09.44.07c.47,0,.95,0,1.42,0s.68,0,1,0h.1a.57.57,0,0,1,.26,0,.46.46,0,0,1,.19.08.59.59,0,0,0,0,.08.14.14,0,0,1,0,.09.23.23,0,0,1-.08.11l-.11.06a1.12,1.12,0,0,1-.52.1h-.09L77.2,23h-.91l-.39,0a.43.43,0,0,0-.34.23.68.68,0,0,0-.12.24q-.51,1.11-1,2.25A21.4,21.4,0,0,0,73.71,28a5.55,5.55,0,0,0-.24,1.71,1.35,1.35,0,0,0,.19.7.53.53,0,0,0,.54.21,2.81,2.81,0,0,0,1.17-.45,6.63,6.63,0,0,0,.9-.75,4.94,4.94,0,0,1,.77-.66c.12-.07.2-.09.23-.06a.13.13,0,0,1,0,.13.59.59,0,0,1,0,.17,1.52,1.52,0,0,1-.22.34l-.17.21,0,0a6.51,6.51,0,0,1-.92.88,5.16,5.16,0,0,1-1.16.71,2.64,2.64,0,0,1-1.19.24,1.22,1.22,0,0,1-1-.64,2.3,2.3,0,0,1-.21-1.26Z"/><path class="cls-1" d="M83.3,29c.15.08.16.28,0,.6a5.27,5.27,0,0,1-.58.66,4.32,4.32,0,0,1-.66.54s0,0,0,0a3.6,3.6,0,0,1-.5.29c-1.47.53-2.22.22-2.26-.93a11.67,11.67,0,0,1-1.19,1,2.75,2.75,0,0,1-1.58.38,1,1,0,0,1-.86-.38,1,1,0,0,1,0-.94,5.22,5.22,0,0,1,1.15-1.66,7.3,7.3,0,0,1,2-1.3A2.15,2.15,0,0,1,80,27a.77.77,0,0,1,.76.71.35.35,0,0,1-.1.36.43.43,0,0,1-.47.08h0l0,0c-.18-.25-.36-.35-.54-.31A2,2,0,0,0,79,28a5.15,5.15,0,0,0-2.11,2.32.34.34,0,0,0,0,.14.15.15,0,0,0,0,.13.54.54,0,0,0,.37,0,1.64,1.64,0,0,0,.4-.23l.35-.25v0c.45-.37.89-.76,1.32-1.15a1.06,1.06,0,0,1,.71-.34q.61,0,.51.54l-.12.41c-.16.58-.17.92,0,1a.79.79,0,0,0,.68,0A2.61,2.61,0,0,0,82,30a9.26,9.26,0,0,0,.77-.78C83,29,83.16,28.89,83.3,29Z"/><path class="cls-1" d="M88.49,29.21a9.47,9.47,0,0,1-2.42,2.15,3.57,3.57,0,0,1-2.53.46c-.91-.16-1.28-.76-1.12-1.81a9.21,9.21,0,0,1,.46-1.55c.47-1.18,1-2.35,1.43-3.51q.24-.63.51-1.26a1.69,1.69,0,0,0,.12-.28c.07-.15.14-.31.2-.47s0-.41-.32-.42H84l-.29,0a3.77,3.77,0,0,1-.47,0,.83.83,0,0,1-.44-.12.13.13,0,0,1-.09-.07.2.2,0,0,1,0-.11.24.24,0,0,1,.06-.09.21.21,0,0,1,.11-.07A2.58,2.58,0,0,1,83.3,22l1.13,0h.39a4,4,0,0,0,.55,0,.42.42,0,0,0,.29-.2,3.15,3.15,0,0,0,.26-.5c.06-.13.12-.26.2-.41.21-.43.41-.87.61-1.32.09-.2.19-.4.29-.59a.86.86,0,0,1,.38-.44.37.37,0,0,1,.43,0,.19.19,0,0,1,.09.12.39.39,0,0,1,0,.14,1.43,1.43,0,0,1-.19.71l-.08.18c-.08.22-.16.45-.26.67-.17.42-.34.85-.5,1.28a.2.2,0,0,0,0,.22.2.2,0,0,0,.18.09l1.28,0H89c.68,0,1,.11.81.28a.44.44,0,0,1-.3.18.91.91,0,0,1-.33,0H89c-.69,0-1.37.07-2,.08a.6.6,0,0,0-.62.43l-.33.81c-.15.36-.3.7-.43,1s-.27.64-.41,1c-.35.82-.69,1.65-1,2.48a12.09,12.09,0,0,0-.48,1.66c-.26,1,.14,1.42,1.19,1.18a6.83,6.83,0,0,0,3.25-2.23C88.6,28.48,88.73,28.62,88.49,29.21Z"/><path class="cls-1" d="M92.43,29a20.51,20.51,0,0,0-2.1.89,1.26,1.26,0,0,0-.54.38c-.05.1,0,.29.11.56l0,.05a3,3,0,0,1,.24,1c0,.71-.55,1.2-1.8,1.49a3.71,3.71,0,0,1-2.5,0,.76.76,0,0,1-.39-1,3,3,0,0,1,1.27-1.24c.68-.42,1.14-.72,1.37-.9a.51.51,0,0,0,.21-.62l-.1-.24c-.08-.19-.17-.39-.25-.59a2.38,2.38,0,0,1-.21-1.09,1.3,1.3,0,0,1,.4-.9,1.64,1.64,0,0,1,1.13-.39,1.89,1.89,0,0,1,.77.11,1.1,1.1,0,0,1,.55.5c.11.16.07.31-.11.45a.33.33,0,0,1-.37,0,1,1,0,0,1-.25-.16v0l-.1-.07a.51.51,0,0,0-.12-.13.52.52,0,0,0-.85.27,1.37,1.37,0,0,0-.09.49,2.11,2.11,0,0,0,.14.59,3,3,0,0,1,.15.32,2.75,2.75,0,0,0,.26.56.25.25,0,0,0,.24.13c.1,0,1-.33,2.62-.94C92.49,28.44,92.59,28.59,92.43,29Zm-4,3.53a.72.72,0,0,0,.54-.87.2.2,0,0,0,0-.1,1.31,1.31,0,0,0-.14-.54c-.08-.13-.24-.12-.5,0a10.23,10.23,0,0,0-1.77,1.28l-.1.12,0,0a.16.16,0,0,0,.14.26A3.72,3.72,0,0,0,88.44,32.52Z"/></svg>